<svg width="100" height="100" viewBox="0 0 100 100" xmlns="http://www.w3.org/2000/svg" role="img" aria-label="Placeres que Conectan">
  <defs>
    <linearGradient id="oliva" x1="0" y1="0" x2="1" y2="1">
      <stop offset="0" stop-color="#6B7F3A"/>
      <stop offset="1" stop-color="#4A5A2B"/>
    </linearGradient>
    <linearGradient id="aceite" x1="0" y1="0" x2="0" y2="1">
      <stop offset="0" stop-color="#E2B25A"/>
      <stop offset="1" stop-color="#C8902E"/>
    </linearGradient>
  </defs>
  <!-- Medallón -->
  <circle cx="50" cy="50" r="47" fill="#FBF3E2" stroke="#C8902E" stroke-width="3"/>
  <circle cx="50" cy="50" r="41" fill="none" stroke="#9CAA6B" stroke-width="1.5" stroke-dasharray="2 4"/>
  <!-- Botella de aceite -->
  <g>
    <rect x="44.5" y="22" width="11" height="9" rx="2" fill="#4A5A2B"/>
    <rect x="46.5" y="30" width="7" height="9" fill="#4A5A2B"/>
    <path d="M40 44 Q40 40 46 39 L54 39 Q60 40 60 44 L62 74 Q62 80 56 80 L44 80 Q38 80 38 74 Z" fill="url(#aceite)" stroke="#4A5A2B" stroke-width="2"/>
    <rect x="42" y="54" width="16" height="16" rx="2" fill="#FBF3E2" opacity="0.85"/>
  </g>
  <!-- Rama de olivo -->
  <g transform="translate(8 30) rotate(-8)">
    <path d="M0 30 Q16 18 34 6" fill="none" stroke="url(#oliva)" stroke-width="2.5" stroke-linecap="round"/>
    <ellipse cx="10" cy="22" rx="6" ry="2.6" fill="#6B7F3A" transform="rotate(-30 10 22)"/>
    <ellipse cx="20" cy="14" rx="6" ry="2.6" fill="#6B7F3A" transform="rotate(-30 20 14)"/>
    <circle cx="14" cy="26" r="3.2" fill="#6B7F3A"/>
    <circle cx="26" cy="12" r="3.2" fill="#9CAA6B"/>
  </g>
  <!-- Gota de aceite -->
  <path d="M76 60 C76 60 82 69 82 73 A6 6 0 1 1 70 73 C70 69 76 60 76 60 Z" fill="url(#aceite)"/>
</svg>
